<?xml version="1.0" encoding="utf-8"?>
<!-- Generator: Adobe Illustrator 28.0.0, SVG Export Plug-In . SVG Version: 6.00 Build 0)  -->
<svg version="1.1" id="Layer_1" xmlns="http://www.w3.org/2000/svg" xmlns:xlink="http://www.w3.org/1999/xlink" x="0px" y="0px"
	 viewBox="0 0 637.97 785.29" style="enable-background:new 0 0 637.97 785.29;" xml:space="preserve">
<g>
	<g>
		<g>
			<circle cx="222.01" cy="212.45" r="52.34"/>
		</g>
		<g>
			<path d="M569.33,170.99V72.51H79.86v537.75l71.78-71.72h270.14c79.27,0,143.68-64.47,143.68-143.68
				c0-79.21-64.47-143.68-143.68-143.68h-62.35v-72.51h62.35c56.92,0,108.88,22.11,147.55,58.31c1.99,1.87,3.93,3.75,5.86,5.68
				c38.79,39.09,62.78,92.93,62.78,152.2c0,4.95-0.18,9.91-0.48,14.8c-7.67,112.32-101.45,201.38-215.64,201.38H181.67L7.35,785.29
				V0h634.48v238.66C620.33,208.51,594.35,186.7,569.33,170.99z"/>
		</g>
		<g>
			<path d="M332.2,452.79c-20.3,0-38.93-3.78-54.85-8.88c-46.04-14.75-76.86-43-80.22-46.17l49.62-52.87
				c0.22,0.21,23,21.01,54.69,30.6c38.27,11.58,72.22,1.84,103.8-29.74l51.26,51.27C413.95,439.56,370.17,452.79,332.2,452.79z"/>
		</g>
	</g>
</g>
</svg>
