<svg width="176" height="61" viewBox="0 0 176 61" fill="none" xmlns="http://www.w3.org/2000/svg">
<path d="M169.941 36.3534V32.4716L169.572 31.6213V24.671C169.572 23.4387 169.189 22.4775 168.425 21.7874C167.686 21.0973 166.54 20.7522 164.987 20.7522C163.927 20.7522 162.88 20.9247 161.845 21.2698C160.834 21.5902 159.972 22.0338 159.257 22.6007L157.187 18.571C158.271 17.807 159.577 17.2154 161.105 16.7965C162.634 16.3775 164.186 16.168 165.764 16.168C168.795 16.168 171.149 16.8827 172.825 18.3122C174.501 19.7417 175.339 21.9722 175.339 25.0037V36.3534H169.941ZM163.878 36.6492C162.325 36.6492 160.995 36.3904 159.885 35.8728C158.776 35.3306 157.926 34.6035 157.335 33.6916C156.743 32.7797 156.447 31.7569 156.447 30.6231C156.447 29.4401 156.731 28.4049 157.298 27.5177C157.889 26.6304 158.813 25.9403 160.07 25.4474C161.327 24.9298 162.966 24.671 164.987 24.671H170.274V28.0352H165.616C164.26 28.0352 163.324 28.2571 162.806 28.7007C162.313 29.1443 162.067 29.6989 162.067 30.3643C162.067 31.1037 162.35 31.6952 162.917 32.1389C163.508 32.5579 164.309 32.7674 165.32 32.7674C166.281 32.7674 167.144 32.5455 167.908 32.1019C168.672 31.6336 169.226 30.9558 169.572 30.0686L170.459 32.7304C170.04 34.012 169.276 34.9855 168.167 35.651C167.058 36.3165 165.628 36.6492 163.878 36.6492Z" fill="black"/>
<path d="M143.9 16.1679C145.477 16.1679 146.882 16.4883 148.114 17.1291C149.371 17.7453 150.357 18.7065 151.072 20.0128C151.787 21.2944 152.144 22.9457 152.144 24.9667V36.3534H146.377V25.854C146.377 24.252 146.019 23.0689 145.304 22.3049C144.614 21.5409 143.629 21.1588 142.347 21.1588C141.435 21.1588 140.609 21.356 139.87 21.7504C139.155 22.1201 138.588 22.6993 138.169 23.4879C137.775 24.2766 137.578 25.2871 137.578 26.5195V36.3534H131.811V8.92188H137.578V21.9722L136.284 20.3085C136.999 18.9776 138.021 17.9548 139.352 17.2401C140.683 16.5253 142.199 16.1679 143.9 16.1679Z" fill="black"/>
<path d="M119.317 36.6492C117.173 36.6492 115.263 36.2179 113.587 35.3552C111.911 34.468 110.593 33.248 109.631 31.6952C108.695 30.1425 108.227 28.3803 108.227 26.4086C108.227 24.4122 108.695 22.65 109.631 21.1219C110.593 19.5692 111.911 18.3615 113.587 17.4989C115.263 16.6116 117.173 16.168 119.317 16.168C121.412 16.168 123.236 16.6116 124.789 17.4989C126.342 18.3615 127.488 19.6061 128.227 21.2328L123.754 23.6358C123.236 22.6993 122.583 22.0092 121.794 21.5655C121.03 21.1219 120.192 20.9001 119.281 20.9001C118.295 20.9001 117.407 21.1219 116.619 21.5655C115.83 22.0092 115.202 22.6377 114.733 23.451C114.29 24.2643 114.068 25.2502 114.068 26.4086C114.068 27.567 114.29 28.5528 114.733 29.3661C115.202 30.1795 115.83 30.808 116.619 31.2516C117.407 31.6952 118.295 31.9171 119.281 31.9171C120.192 31.9171 121.03 31.7076 121.794 31.2886C122.583 30.8449 123.236 30.1425 123.754 29.1813L128.227 31.6213C127.488 33.2233 126.342 34.468 124.789 35.3552C123.236 36.2179 121.412 36.6492 119.317 36.6492Z" fill="black"/>
<path d="M98.574 36.3534V32.4716L98.2043 31.6213V24.671C98.2043 23.4387 97.8223 22.4775 97.0583 21.7874C96.3189 21.0973 95.1728 20.7522 93.6201 20.7522C92.5603 20.7522 91.5128 20.9247 90.4777 21.2698C89.4671 21.5902 88.6045 22.0338 87.8898 22.6007L85.8195 18.571C86.9039 17.807 88.2102 17.2154 89.7383 16.7965C91.2663 16.3775 92.8191 16.168 94.3964 16.168C97.428 16.168 99.7817 16.8827 101.458 18.3122C103.134 19.7417 103.972 21.9722 103.972 25.0037V36.3534H98.574ZM92.511 36.6492C90.9583 36.6492 89.6273 36.3904 88.5183 35.8728C87.4092 35.3306 86.5589 34.6035 85.9674 33.6916C85.3758 32.7797 85.0801 31.7569 85.0801 30.6231C85.0801 29.4401 85.3635 28.4049 85.9304 27.5177C86.5219 26.6304 87.4461 25.9403 88.7031 25.4474C89.9601 24.9298 91.5991 24.671 93.6201 24.671H98.9067V28.0352H94.2486C92.893 28.0352 91.9564 28.2571 91.4389 28.7007C90.9459 29.1443 90.6995 29.6989 90.6995 30.3643C90.6995 31.1037 90.9829 31.6952 91.5498 32.1389C92.1413 32.5579 92.9423 32.7674 93.9528 32.7674C94.914 32.7674 95.7766 32.5455 96.5407 32.1019C97.3047 31.6336 97.8593 30.9558 98.2043 30.0686L99.0916 32.7304C98.6726 34.012 97.9086 34.9855 96.7995 35.651C95.6904 36.3165 94.2609 36.6492 92.511 36.6492Z" fill="black"/>
<path d="M71.3391 36.7973C69.2688 36.7973 67.2848 36.5262 65.387 35.984C63.4892 35.4171 61.9611 34.69 60.8027 33.8028L62.8361 29.2925C63.9452 30.0811 65.2514 30.7343 66.7549 31.2519C68.2829 31.7448 69.8233 31.9912 71.3761 31.9912C72.5591 31.9912 73.508 31.8803 74.2227 31.6585C74.9621 31.4121 75.5044 31.0793 75.8494 30.6603C76.1945 30.2413 76.367 29.7607 76.367 29.2185C76.367 28.5284 76.0959 27.9862 75.5536 27.5919C75.0114 27.1729 74.2967 26.8401 73.4094 26.5937C72.5221 26.3226 71.5363 26.0761 70.4518 25.8543C69.392 25.6078 68.3199 25.3121 67.2355 24.967C66.1757 24.622 65.2021 24.1783 64.3149 23.6361C63.4276 23.0939 62.7005 22.3791 62.1336 21.4919C61.5914 20.6046 61.3203 19.4708 61.3203 18.0906C61.3203 16.6119 61.7147 15.2686 62.5033 14.0609C63.3167 12.8286 64.5244 11.8551 66.1264 11.1403C67.753 10.4009 69.7864 10.0312 72.2264 10.0312C73.853 10.0312 75.4551 10.2284 77.0324 10.6228C78.6098 10.9925 80.0023 11.5593 81.21 12.3234L79.3615 16.8706C78.1538 16.1805 76.9462 15.6753 75.7385 15.3549C74.5308 15.0098 73.3478 14.8373 72.1894 14.8373C71.031 14.8373 70.0821 14.9729 69.3427 15.244C68.6033 15.5151 68.0734 15.8725 67.753 16.3161C67.4326 16.7351 67.2724 17.228 67.2724 17.7949C67.2724 18.4603 67.5435 19.0026 68.0858 19.4216C68.628 19.8159 69.3427 20.1363 70.23 20.3828C71.1173 20.6292 72.0908 20.8757 73.1506 21.1222C74.2351 21.3686 75.3072 21.6521 76.367 21.9725C77.4514 22.2929 78.4373 22.7242 79.3246 23.2664C80.2118 23.8086 80.9266 24.5234 81.4688 25.4106C82.0357 26.2979 82.3191 27.4193 82.3191 28.7749C82.3191 30.229 81.9124 31.5599 81.0991 32.7676C80.2858 33.9753 79.0658 34.9488 77.4391 35.6882C75.8371 36.4276 73.8037 36.7973 71.3391 36.7973Z" fill="black"/>
<path d="M17 21C19.2091 21 21 18.9853 21 16.5C21 14.0147 19.2091 12 17 12C14.7909 12 13 14.0147 13 16.5C13 18.9853 14.7909 21 17 21Z" fill="black"/>
<path d="M43.4009 13.2822V5.63245H5.59985V47.404L11.1433 41.8329H32.0058C38.1278 41.8329 43.1021 36.825 43.1021 30.6721C43.1021 24.5192 38.1231 19.5112 32.0058 19.5112H27.1906V13.8788H32.0058C36.4017 13.8788 40.4145 15.5963 43.4009 18.4082C43.5546 18.5535 43.7044 18.6995 43.8535 18.8494C46.8492 21.8859 48.7019 26.0681 48.7019 30.6721C48.7019 31.0566 48.688 31.4419 48.6648 31.8217C48.0725 40.5465 40.83 47.4646 32.0113 47.4646H13.4625L0 61V0H49V18.5387C47.3396 16.1967 45.3332 14.5025 43.4009 13.2822Z" fill="black"/>
<path d="M25.4152 35C23.8499 35 22.4133 34.7198 21.1858 34.3417C17.6356 33.2483 15.2591 31.1542 15 30.9192L18.8262 27C18.8432 27.0156 20.5997 28.5575 23.0433 29.2683C25.9943 30.1268 28.6122 29.4047 31.0473 27.0638L35 30.8643C31.719 34.0193 28.3431 35 25.4152 35Z" fill="black"/>
</svg>
