<svg width="177" height="63" viewBox="0 0 177 63" fill="none" xmlns="http://www.w3.org/2000/svg">
<path d="M171.454 39.0064V35.0185L171.075 34.145V27.0048C171.075 25.7389 170.682 24.7514 169.897 24.0424C169.138 23.3335 167.96 22.979 166.365 22.979C165.276 22.979 164.2 23.1562 163.137 23.5107C162.099 23.8399 161.213 24.2956 160.478 24.878L158.351 20.7382C159.465 19.9533 160.807 19.3456 162.377 18.9152C163.947 18.4847 165.542 18.2695 167.163 18.2695C170.277 18.2695 172.695 19.0038 174.417 20.4723C176.138 21.9409 176.999 24.2323 176.999 27.3467V39.0064H171.454ZM165.226 39.3102C163.631 39.3102 162.263 39.0444 161.124 38.5127C159.985 37.9556 159.111 37.2087 158.503 36.2719C157.896 35.335 157.592 34.2843 157.592 33.1196C157.592 31.9042 157.883 30.8408 158.465 29.9293C159.073 29.0178 160.022 28.3088 161.314 27.8024C162.605 27.2707 164.289 27.0048 166.365 27.0048H171.796V30.461H167.011C165.618 30.461 164.656 30.6889 164.124 31.1446C163.618 31.6004 163.365 32.1701 163.365 32.8537C163.365 33.6133 163.656 34.221 164.238 34.6767C164.846 35.1071 165.669 35.3224 166.707 35.3224C167.694 35.3224 168.581 35.0945 169.365 34.6387C170.15 34.1577 170.72 33.4614 171.075 32.5499L171.986 35.2844C171.556 36.601 170.771 37.6011 169.631 38.2848C168.492 38.9684 167.023 39.3102 165.226 39.3102Z" fill="#4A516A"/>
<path d="M144.701 18.2702C146.321 18.2702 147.764 18.5993 149.03 19.2576C150.322 19.8906 151.334 20.8781 152.069 22.22C152.803 23.5367 153.17 25.2331 153.17 27.3093V39.007H147.245V28.2208C147.245 26.575 146.878 25.3597 146.144 24.5748C145.435 23.7899 144.422 23.3974 143.105 23.3974C142.169 23.3974 141.32 23.6 140.561 24.0051C139.827 24.3849 139.244 24.9799 138.814 25.7901C138.409 26.6004 138.206 27.6385 138.206 28.9045V39.007H132.281V10.8262H138.206V24.233L136.877 22.5239C137.611 21.1566 138.662 20.1059 140.029 19.3716C141.396 18.6373 142.954 18.2702 144.701 18.2702Z" fill="#4A516A"/>
<path d="M119.447 39.3102C117.244 39.3102 115.282 38.8671 113.56 37.9809C111.838 37.0694 110.483 35.8161 109.496 34.221C108.534 32.6258 108.053 30.8155 108.053 28.7899C108.053 26.739 108.534 24.9286 109.496 23.3588C110.483 21.7637 111.838 20.523 113.56 19.6368C115.282 18.7253 117.244 18.2695 119.447 18.2695C121.599 18.2695 123.472 18.7253 125.068 19.6368C126.663 20.523 127.84 21.8016 128.6 23.4727L124.004 25.9414C123.472 24.9793 122.801 24.2703 121.991 23.8146C121.206 23.3588 120.345 23.1309 119.409 23.1309C118.396 23.1309 117.484 23.3588 116.674 23.8146C115.864 24.2703 115.218 24.916 114.737 25.7515C114.281 26.5871 114.054 27.5998 114.054 28.7899C114.054 29.9799 114.281 30.9927 114.737 31.8282C115.218 32.6638 115.864 33.3094 116.674 33.7652C117.484 34.221 118.396 34.4488 119.409 34.4488C120.345 34.4488 121.206 34.2336 121.991 33.8032C122.801 33.3474 123.472 32.6258 124.004 31.6383L128.6 34.145C127.84 35.7908 126.663 37.0694 125.068 37.9809C123.472 38.8671 121.599 39.3102 119.447 39.3102Z" fill="#4A516A"/>
<path d="M98.1379 39.0064V35.0185L97.7581 34.145V27.0048C97.7581 25.7389 97.3657 24.7514 96.5808 24.0424C95.8212 23.3335 94.6438 22.979 93.0487 22.979C91.9599 22.979 90.8838 23.1562 89.8204 23.5107C88.7823 23.8399 87.8961 24.2956 87.1618 24.878L85.035 20.7382C86.1491 19.9533 87.491 19.3456 89.0608 18.9152C90.6306 18.4847 92.2258 18.2695 93.8462 18.2695C96.9606 18.2695 99.3786 19.0038 101.1 20.4723C102.822 21.9409 103.683 24.2323 103.683 27.3467V39.0064H98.1379ZM91.9093 39.3102C90.3141 39.3102 88.9469 39.0444 87.8075 38.5127C86.6681 37.9556 85.7946 37.2087 85.1869 36.2719C84.5792 35.335 84.2754 34.2843 84.2754 33.1196C84.2754 31.9042 84.5666 30.8408 85.1489 29.9293C85.7566 29.0178 86.7061 28.3088 87.9974 27.8024C89.2887 27.2707 90.9725 27.0048 93.0487 27.0048H98.4798V30.461H93.6943C92.3017 30.461 91.3396 30.6889 90.8079 31.1446C90.3015 31.6004 90.0483 32.1701 90.0483 32.8537C90.0483 33.6133 90.3395 34.221 90.9218 34.6767C91.5295 35.1071 92.3524 35.3224 93.3905 35.3224C94.378 35.3224 95.2641 35.0945 96.0491 34.6387C96.834 34.1577 97.4037 33.4614 97.7581 32.5499L98.6697 35.2844C98.2392 36.601 97.4543 37.6011 96.3149 38.2848C95.1755 38.9684 93.707 39.3102 91.9093 39.3102Z" fill="#4A516A"/>
<path d="M70.1582 39.464C68.0313 39.464 65.9931 39.1855 64.0435 38.6285C62.0938 38.0461 60.524 37.2992 59.334 36.3877L61.4229 31.7542C62.5622 32.5644 63.9042 33.2354 65.4487 33.7671C67.0185 34.2735 68.601 34.5267 70.1961 34.5267C71.4115 34.5267 72.3863 34.4127 73.1206 34.1849C73.8802 33.9317 74.4372 33.5898 74.7917 33.1594C75.1462 32.729 75.3234 32.2352 75.3234 31.6782C75.3234 30.9692 75.0449 30.4122 74.4878 30.0071C73.9308 29.5767 73.1965 29.2348 72.285 28.9817C71.3735 28.7031 70.3607 28.4499 69.2467 28.2221C68.1579 27.9689 67.0565 27.665 65.9424 27.3105C64.8537 26.9561 63.8536 26.5003 62.942 25.9433C62.0305 25.3863 61.2836 24.652 60.7012 23.7405C60.1442 22.829 59.8657 21.6643 59.8657 20.2463C59.8657 18.7272 60.2708 17.3472 61.081 16.1066C61.9166 14.8406 63.1573 13.8405 64.803 13.1062C66.4741 12.3466 68.563 11.9668 71.0697 11.9668C72.7408 11.9668 74.3866 12.1694 76.007 12.5745C77.6275 12.9543 79.058 13.5366 80.2987 14.3215L78.3997 18.993C77.1591 18.2841 75.9184 17.765 74.6777 17.4359C73.4371 17.0814 72.2217 16.9041 71.0317 16.9041C69.8417 16.9041 68.8669 17.0434 68.1073 17.3219C67.3477 17.6004 66.8033 17.9676 66.4741 18.4233C66.145 18.8538 65.9804 19.3602 65.9804 19.9425C65.9804 20.6261 66.2589 21.1832 66.816 21.6136C67.373 22.0187 68.1073 22.3479 69.0188 22.6011C69.9303 22.8543 70.9304 23.1075 72.0192 23.3607C73.1332 23.6139 74.2346 23.905 75.3234 24.2342C76.4375 24.5634 77.4502 25.0065 78.3618 25.5635C79.2733 26.1205 80.0075 26.8548 80.5646 27.7663C81.1469 28.6778 81.4381 29.8299 81.4381 31.2224C81.4381 32.7163 81.0203 34.0836 80.1848 35.3242C79.3492 36.5649 78.0959 37.565 76.4248 38.3246C74.779 39.0842 72.6901 39.464 70.1582 39.464Z" fill="#4A516A"/>
<path d="M16.1348 21.4454C18.262 21.4454 19.9864 19.7209 19.9864 17.5938C19.9864 15.4666 18.262 13.7422 16.1348 13.7422C14.0076 13.7422 12.2832 15.4666 12.2832 17.5938C12.2832 19.7209 14.0076 21.4454 16.1348 21.4454Z" fill="#C1B0E7"/>
<path d="M44.5865 13.645V5.78631H5.75281V48.6989L11.4477 42.9756H32.8801C39.1693 42.9756 44.2795 37.8309 44.2795 31.5099C44.2795 25.1889 39.1645 20.0442 32.8801 20.0442H27.9334V14.2579H32.8801C37.3961 14.2579 41.5185 16.0223 44.5865 18.9111C44.7444 19.0603 44.8983 19.2103 45.0514 19.3643C48.1289 22.4837 50.0323 26.7802 50.0323 31.5099C50.0323 31.9049 50.018 32.3007 49.9942 32.691C49.3857 41.6541 41.9453 48.7611 32.8857 48.7611H13.8302L0 62.6663V0H50.3385V19.0451C48.6327 16.6391 46.5715 14.8987 44.5865 13.645Z" fill="#C1B0E7"/>
<path d="M26.1099 35.9549C24.5018 35.9549 23.026 35.667 21.7649 35.2786C18.1178 34.1553 15.6763 32.004 15.4102 31.7626L19.3409 27.7363C19.3583 27.7523 21.1628 29.3363 23.6732 30.0666C26.7048 30.9485 29.3942 30.2068 31.8959 27.8018L35.9565 31.7062C32.5858 34.9473 29.1177 35.9549 26.1099 35.9549Z" fill="#C1B0E7"/>
</svg>
