<?xml version="1.0" encoding="utf-8"?>
<!-- Generator: Adobe Illustrator 28.0.0, SVG Export Plug-In . SVG Version: 6.00 Build 0)  -->
<svg version="1.1" id="Layer_1" xmlns="http://www.w3.org/2000/svg" xmlns:xlink="http://www.w3.org/1999/xlink" x="0px" y="0px"
	 viewBox="0 0 2621.32 785.29" style="enable-background:new 0 0 2621.32 785.29;" xml:space="preserve">
<g>
	<g>
		<g>
			<circle cx="222.01" cy="212.45" r="52.34"/>
		</g>
		<g>
			<path d="M569.33,170.99V72.51H79.86v537.75l71.78-71.72h270.14c79.27,0,143.68-64.47,143.68-143.68
				c0-79.21-64.47-143.68-143.68-143.68h-62.35v-72.51h62.35c56.92,0,108.88,22.11,147.55,58.31c1.99,1.87,3.93,3.75,5.86,5.68
				c38.79,39.09,62.78,92.93,62.78,152.2c0,4.95-0.18,9.91-0.48,14.8c-7.67,112.32-101.45,201.38-215.64,201.38H181.67L7.35,785.29
				V0h634.48v238.66C620.33,208.51,594.35,186.7,569.33,170.99z"/>
		</g>
		<g>
			<path d="M332.2,452.79c-20.3,0-38.93-3.78-54.85-8.88c-46.04-14.75-76.86-43-80.22-46.17l49.62-52.87
				c0.22,0.21,23,21.01,54.69,30.6c38.27,11.58,72.22,1.84,103.8-29.74l51.26,51.27C413.95,439.56,370.17,452.79,332.2,452.79z"/>
		</g>
	</g>
	<g>
		<path d="M967.11,81.11v439.82h-72.14V81.11H967.11z"/>
		<path d="M1581.59,520.93h-72.14l-217.06-328.44v328.44h-72.14V80.48h72.14l217.06,327.81V80.48h72.14V520.93z"/>
		<path d="M1906.86,139.33v129.1h151.88v58.85h-151.88v134.79h170.87v58.85h-243.01V80.48h243.01v58.85H1906.86z"/>
		<path d="M2389.7,509.86c-23.63-10.33-42.19-25-55.69-43.98c-13.51-18.98-20.25-41.13-20.25-66.45h77.21
			c1.68,18.99,9.18,34.6,22.47,46.83c13.29,12.24,31.96,18.35,56.01,18.35c24.89,0,44.3-6.01,58.22-18.04
			c13.92-12.02,20.88-27.53,20.88-46.51c0-14.76-4.33-26.79-12.97-36.07c-8.65-9.27-19.41-16.45-32.27-21.52
			c-12.87-5.06-30.69-10.54-53.47-16.45c-28.7-7.59-52-15.29-69.93-23.1c-17.94-7.8-33.22-19.93-45.88-36.39
			s-18.99-38.39-18.99-65.81c0-25.31,6.33-47.46,18.99-66.45c12.66-18.98,30.38-33.54,53.16-43.67s49.14-15.19,79.1-15.19
			c42.61,0,77.52,10.66,104.73,31.96c27.21,21.31,42.29,50.53,45.25,87.65h-79.74c-1.27-16.03-8.86-29.74-22.78-41.13
			c-13.92-11.39-32.27-17.09-55.06-17.09c-20.68,0-37.55,5.28-50.63,15.82c-13.08,10.55-19.62,25.74-19.62,45.56
			c0,13.51,4.11,24.58,12.34,33.22c8.23,8.65,18.67,15.5,31.33,20.57c12.66,5.06,29.95,10.55,51.89,16.45
			c29.11,8.02,52.84,16.04,71.19,24.05c18.35,8.02,33.96,20.36,46.83,37.02c12.86,16.67,19.3,38.92,19.3,66.76
			c0,22.37-6.01,43.46-18.04,63.28c-12.02,19.84-29.54,35.75-52.53,47.78c-23,12.02-50.1,18.04-81.32,18.04
			C2439.91,525.36,2413.33,520.2,2389.7,509.86z"/>
	</g>
</g>
</svg>
